#!OML:ASF F:\VICON\USERDATA\INSTALL\rory3\rory3.ASF
:FULLY-SPECIFIED
:DEGREES
4480
root -8.13258 17.7859 14.8174 -1908.41 -80.0887 -252.842
lowerback 10.0934 0.681704 -6.19645
upperback 0.492762 0.0952725 -0.998549
thorax -5.16698 0.161438 2.43091
lowerneck -16.4793 -4.91838 -10.5311
upperneck 28.7232 -6.99091 7.59913
head 12.9949 -3.49469 3.56577
rclavicle 4.96962e-015 2.38542e-014
rhumerus -38.174 -11.3065 -81.5429
rradius 34.8121
rwrist 5.30919
rhand -17.4052 8.31063
rfingers 7.12502
rthumb 8.84436 -21.484
lclavicle 4.96962e-015 2.38542e-014
lhumerus -33.053 1.07641 79.2832
lradius 36.6585
lwrist -2.62807
lhand -17.9665 24.2575
lfingers 7.12502
lthumb 8.30266 54.0743
rfemur -24.9153 -17.9718 22.8207
rtibia 29.4192
rfoot -8.78783 -25.3768
rtoes 30.1914
lfemur 6.66622 6.71161 -29.4106
ltibia 20.1974
lfoot -3.30281 14.8927
ltoes -29.2648
4481
root -8.2231 17.798 14.7935 -1912.45 -79.9467 -248.793
lowerback 10.0022 0.7373 -6.202
upperback 0.473136 0.178506 -0.950779
thorax -5.14397 0.203384 2.47224
lowerneck -16.4379 -4.93592 -10.4657
upperneck 28.59 -7.03758 7.6212
head 12.9344 -3.50487 3.55274
rclavicle -1.38155e-014 1.74931e-014
rhumerus -38.016 -11.1148 -81.589
rradius 34.6462
rwrist 5.10394
rhand -18.1445 7.87129
rfingers 7.12502
rthumb 8.13088 -21.9523
lclavicle -1.38155e-014 1.74931e-014
lhumerus -33.2418 1.37463 79.4348
lradius 36.1916
lwrist -2.36263
lhand -17.568 24.211
lfingers 7.12502
lthumb 8.68721 54.0123
rfemur -24.496 -17.2338 22.8982
rtibia 29.2772
rfoot -9.02335 -25.529
rtoes 30.4533
lfemur 6.41903 6.94453 -29.1709
ltibia 21.2413
lfoot -2.89478 14.7137
ltoes -29.8393
4482
root -8.31192 17.8084 14.7766 -1916.7 -79.4626 -244.625
lowerback 9.96326 0.857931 -6.3803
upperback 0.499552 0.321156 -0.95208
thorax -5.1084 0.275563 2.55074
lowerneck -16.4384 -4.97437 -10.4994
upperneck 28.5125 -7.07613 7.61583
head 12.9086 -3.52536 3.5479
rclavicle -8.89561e-015 -1.03368e-014
rhumerus -38.0407 -10.9538 -81.5368
rradius 34.661
rwrist 4.94472
rhand -18.6683 7.54074
rfingers 7.12502
rthumb 7.62532 -22.3018
lclavicle -8.89561e-015 -1.03368e-014
lhumerus -33.4376 1.78193 79.613
lradius 35.751
lwrist -2.19798
lhand -17.856 24.1217
lfingers 7.12502
lthumb 8.40935 53.9343
rfemur -24.0029 -16.717 22.7226
rtibia 29.1676
rfoot -9.38246 -25.1925
rtoes 30.6464
lfemur 6.19131 7.28065 -29.2222
ltibia 22.4018
lfoot -2.38267 14.5149
ltoes -30.5273
4483
root -8.40512 17.8208 14.7533 -1920.48 -78.7255 -240.932
lowerback 9.88682 1.01358 -6.74779
upperback 0.504944 0.484178 -1.04992
thorax -5.07812 0.36064 2.63134
lowerneck -16.3508 -5.07276 -10.471
upperneck 28.4046 -7.21055 7.54587
head 12.8574 -3.59194 3.49097
rclavicle -2.49475e-014 1.59028e-015
rhumerus -38.3686 -10.7329 -81.6114
rradius 35.0804
rwrist 4.67005
rhand -18.9695 7.09465
rfingers 7.12502
rthumb 7.33463 -22.7582
lclavicle -2.49475e-014 1.59028e-015
lhumerus -33.7079 2.21631 79.6187
lradius 35.2918
lwrist -2.59738
lhand -17.8424 24.1294
lfingers 7.12502
lthumb 8.42239 53.9414
rfemur -23.4762 -16.2637 22.4004
rtibia 29.0678
rfoot -9.57152 -24.5993
rtoes 30.5777
lfemur 5.8934 7.75871 -29.4313
ltibia 23.7054
lfoot -1.88294 14.2183
ltoes -31.3769
4484
root -8.50118 17.8312 14.7194 -1924.04 -78.4062 -237.272
lowerback 9.64074 1.06236 -6.73861
upperback 0.460032 0.570211 -1.05197
thorax -4.99538 0.402027 2.61337
lowerneck -16.3478 -5.23123 -10.5486
upperneck 28.3699 -7.44398 7.61097
head 12.8764 -3.69628 3.48861
rclavicle 7.65321e-015 -2.54444e-014
rhumerus -38.8394 -10.8108 -81.6624
rradius 35.8032
rwrist 4.95218
rhand -19.0321 6.52054
rfingers 7.12502
rthumb 7.27412 -23.3344
lclavicle 7.65321e-015 -2.54444e-014
lhumerus -34.0005 2.53445 79.5064
lradius 34.8622
lwrist -3.16411
lhand -17.3968 23.9659
lfingers 7.12502
lthumb 8.85246 53.7602
rfemur -23.0657 -15.7471 22.6103
rtibia 28.9778
rfoot -9.74558 -24.1271
rtoes 30.3042
lfemur 5.38322 8.103 -29.0904
ltibia 25.0718
lfoot -1.52194 13.7432
ltoes -31.3893
4485
root -8.59615 17.84 14.6875 -1927.9 -78.1427 -233.361
lowerback 9.41646 1.10494 -6.55474
upperback 0.458284 0.669487 -1.01391
thorax -4.87852 0.444843 2.53839
lowerneck -16.4268 -5.35141 -10.8649
upperneck 28.409 -7.64934 7.98898
head 12.9661 -3.77473 3.65566
rclavicle -2.3556e-014 -1.59028e-015
rhumerus -39.0556 -11.5656 -81.3674
rradius 36.1556
rwrist 5.75858
rhand -18.5029 6.38945
rfingers 7.12502
rthumb 7.785 -23.4472
lclavicle -2.3556e-014 -1.59028e-015
lhumerus -34.2826 2.56388 79.5252
lradius 34.548
lwrist -3.13008
lhand -17.1599 23.819
lfingers 7.12502
lthumb 9.08101 53.6035
rfemur -22.5891 -15.6494 23.0342
rtibia 28.7584
rfoot -9.41718 -23.4906
rtoes 28.6261
lfemur 4.8703 8.37887 -28.6068
ltibia 26.5828
lfoot -1.17137 13.2629
ltoes -31.0073
4486
root -8.6914 17.8532 14.6598 -1931.48 -77.7224 -229.823
lowerback 9.27114 1.13288 -6.42656
upperback 0.453525 0.736921 -0.952972
thorax -4.80696 0.474902 2.52257
lowerneck -16.341 -5.35283 -11.2584
upperneck 28.3522 -7.65627 8.3384
head 12.9608 -3.78124 3.8602
rclavicle 1.10822e-014 2.46493e-014
rhumerus -38.727 -11.6709 -81.1682
rradius 35.6633
rwrist 5.66952
rhand -17.8877 6.87141
rfingers 7.12502
rthumb 8.37875 -22.9424
lclavicle 1.10822e-014 2.46493e-014
lhumerus -34.6821 2.75658 79.6671
lradius 34.2703
lwrist -3.03487
lhand -17.4373 24.1056
lfingers 7.12502
lthumb 8.81334 53.9015
rfemur -22.0078 -15.7672 23.3112
rtibia 28.3759
rfoot -9.02238 -22.6982
rtoes 26.6891
lfemur 4.36883 8.61402 -28.26
ltibia 28.2482
lfoot -0.775089 12.8143
ltoes -30.7364
4487
root -8.7874 17.87 14.6314 -1936.45 -77.6097 -225.056
lowerback 9.37326 1.15175 -5.76459
upperback 0.480751 0.836672 -0.805673
thorax -4.83586 0.513065 2.29085
lowerneck -16.142 -5.33771 -11.2715
upperneck 28.2096 -7.64297 8.3307
head 12.8587 -3.78328 3.86084
rclavicle -1.94312e-014 1.27222e-014
rhumerus -38.3742 -11.1151 -81.3219
rradius 35.0105
rwrist 4.86015
rhand -18.0075 7.19867
rfingers 7.12502
rthumb 8.26313 -22.6197
lclavicle -1.94312e-014 1.27222e-014
lhumerus -35.0648 2.93678 79.7659
lradius 33.9395
lwrist -3.15233
lhand -17.7866 24.4212
lfingers 7.12502
lthumb 8.47631 54.2311
rfemur -21.1236 -15.5318 23.9498
rtibia 28.0284
rfoot -9.2075 -21.969
rtoes 25.9699
lfemur 4.0803 8.88425 -27.327
ltibia 29.9183
lfoot -0.120041 12.1816
ltoes -31.1569
4488
root -8.8811 17.8809 14.6014 -1941.12 -77.3332 -220.701
lowerback 9.56853 1.20178 -5.32091
upperback 0.585348 0.949412 -0.65127
thorax -4.83936 0.559011 2.18629
lowerneck -16.2304 -5.3503 -11.0434
upperneck 28.2361 -7.64705 8.08577
head 12.8663 -3.78965 3.72295
rclavicle -9.98893e-015 5.56597e-015
rhumerus -38.0977 -10.6239 -81.482
rradius 34.5002
rwrist 4.30654
rhand -18.3426 7.40115
rfingers 7.12502
rthumb 7.93967 -22.4297
lclavicle -9.98893e-015 5.56597e-015
lhumerus -35.2614 3.37693 79.7603
lradius 33.4392
lwrist -3.77195
lhand -17.5328 24.2742
lfingers 7.12502
lthumb 8.7212 54.074
rfemur -20.1465 -15.1403 24.4519
rtibia 27.7632
rfoot -9.36686 -21.4365
rtoes 25.3521
lfemur 3.85823 9.23122 -26.4417
ltibia 31.5922
lfoot 0.734761 11.3721
ltoes -31.6907
4489
root -8.9697 17.8915 14.5711 -1942.33 -76.5521 -219.539
lowerback 9.50421 1.28579 -5.76415
upperback 0.575818 1.01436 -0.67555
thorax -4.82659 0.599455 2.40152
lowerneck -16.3556 -5.40825 -11.1082
upperneck 28.3217 -7.73024 8.1387
head 12.9438 -3.82646 3.74
rclavicle -1.42628e-014 -5.56597e-015
rhumerus -37.8664 -10.1209 -81.5413
rradius 34.0768
rwrist 3.88533
rhand -18.2809 7.53245
rfingers 7.12502
rthumb 7.99926 -22.2962
lclavicle -1.42628e-014 -5.56597e-015
lhumerus -35.5607 3.55761 79.8899
lradius 33.0863
lwrist -4.41585
lhand -17.2443 24.2201
lfingers 7.12502
lthumb 8.99959 54.0081
rfemur -19.6231 -14.8475 24.1714
rtibia 27.4806
rfoot -9.29634 -21.0855
rtoes 25.3717
lfemur 3.15081 9.36284 -26.518
ltibia 33.3677
lfoot 1.75429 10.5228
ltoes -32.0352
4490
root -9.05764 17.9027 14.5395 -1943.63 -75.7771 -218.312
lowerback 9.48383 1.35967 -6.11805
upperback 0.525328 1.06906 -0.741179
thorax -4.87901 0.635049 2.52353
lowerneck -16.2469 -5.40127 -11.1216
upperneck 28.2898 -7.76564 8.23065
head 12.9167 -3.83824 3.77302
rclavicle 4.91992e-015 1.35174e-014
rhumerus -37.6846 -9.43042 -81.7664
rradius 33.6848
rwrist 3.30408
rhand -18.3097 7.46961
rfingers 7.12502
rthumb 7.97142 -22.3601
lclavicle 4.91992e-015 1.35174e-014
lhumerus -35.9664 3.40979 80.034
lradius 32.8055
lwrist -4.82101
lhand -17.1952 24.4967
lfingers 7.12502
lthumb 9.04696 54.2827
rfemur -19.0893 -14.591 23.9473
rtibia 27.204
rfoot -9.24356 -20.6312
rtoes 25.7193
lfemur 2.38589 9.56561 -26.4762
ltibia 35.2747
lfoot 2.89712 9.4024
ltoes -31.8008
